<svg width="82" height="15" viewBox="0 0 82 15" fill="none" xmlns="http://www.w3.org/2000/svg">
<path d="M0.533203 15V0.722656H5.21094C9.09115 0.722656 11.0312 2.12891 11.0312 4.94141C11.0312 5.80729 10.8132 6.5625 10.377 7.20703C9.94727 7.84505 9.35807 8.36914 8.60938 8.7793L12.7695 15H8.39453L5.37695 9.80469H4.39062V15H0.533203ZM5.15234 3.64258H4.39062V6.9043H5.11328C5.69922 6.9043 6.18099 6.77409 6.55859 6.51367C6.94271 6.25326 7.13477 5.78776 7.13477 5.11719C7.13477 4.66797 6.97852 4.3099 6.66602 4.04297C6.35352 3.77604 5.84896 3.64258 5.15234 3.64258ZM19.5258 11.8555H24.1449V15H15.6684V0.722656H24.1449V3.81836H19.5258V6.06445H23.8129V9.16016H19.5258V11.8555ZM36.5164 0.664062L41.2332 15H37.0145L36.3113 12.3242H31.6727L30.95 15H26.7117L31.3699 0.664062H36.5164ZM33.0887 6.81641L32.4734 9.16016H35.5105L34.8953 6.81641C34.8628 6.6862 34.8204 6.5332 34.7684 6.35742C34.7228 6.17513 34.6707 5.96354 34.6121 5.72266C34.4949 5.25391 34.3745 4.76888 34.2508 4.26758C34.1336 3.76628 34.0392 3.34961 33.9676 3.01758C33.935 3.18034 33.896 3.36263 33.8504 3.56445C33.8113 3.76628 33.7658 3.98763 33.7137 4.22852C33.6095 4.70378 33.4988 5.17904 33.3816 5.6543C33.271 6.12305 33.1733 6.51042 33.0887 6.81641ZM53.7121 11.8848V15H44.3566V0.722656H48.2141V11.8848H53.7121ZM65.9762 3.87695H62.4996V15H58.6324V3.87695H55.1559V0.722656H65.9762V3.87695ZM68.0742 0.722656H72.2734L74.7148 6.01562L77.1758 0.722656H81.3555L76.6582 9.42383V15H72.7715V9.54102L68.0742 0.722656Z" fill="white"/>
</svg>
