<svg width="98" height="18" viewBox="0 0 98 18" fill="none" xmlns="http://www.w3.org/2000/svg">
<path d="M0.839844 18V0.867188H6.45312C11.1094 0.867188 13.4375 2.55469 13.4375 5.92969C13.4375 6.96875 13.1758 7.875 12.6523 8.64844C12.1367 9.41406 11.4297 10.043 10.5312 10.5352L15.5234 18H10.2734L6.65234 11.7656H5.46875V18H0.839844ZM6.38281 4.37109H5.46875V8.28516H6.33594C7.03906 8.28516 7.61719 8.12891 8.07031 7.81641C8.53125 7.50391 8.76172 6.94531 8.76172 6.14062C8.76172 5.60156 8.57422 5.17188 8.19922 4.85156C7.82422 4.53125 7.21875 4.37109 6.38281 4.37109ZM23.6309 14.2266H29.1739V18H19.002V0.867188H29.1739V4.58203H23.6309V7.27734H28.7755V10.9922H23.6309V14.2266ZM44.0197 0.796875L49.6798 18H44.6173L43.7736 14.7891H38.2072L37.34 18H32.2541L37.8439 0.796875H44.0197ZM39.9064 8.17969L39.1681 10.9922H42.8127L42.0744 8.17969C42.0353 8.02344 41.9845 7.83984 41.922 7.62891C41.8673 7.41016 41.8048 7.15625 41.7345 6.86719C41.5939 6.30469 41.4494 5.72266 41.3009 5.12109C41.1603 4.51953 41.047 4.01953 40.9611 3.62109C40.922 3.81641 40.8752 4.03516 40.8205 4.27734C40.7736 4.51953 40.7189 4.78516 40.6564 5.07422C40.5314 5.64453 40.3986 6.21484 40.258 6.78516C40.1252 7.34766 40.008 7.8125 39.9064 8.17969ZM64.6545 14.2617V18H53.428V0.867188H58.0569V14.2617H64.6545ZM79.3714 4.65234H75.1995V18H70.5589V4.65234H66.387V0.867188H79.3714V4.65234ZM81.8891 0.867188H86.9281L89.8578 7.21875L92.8109 0.867188H97.8266L92.1898 11.3086V18H87.5258V11.4492L81.8891 0.867188Z" fill="#1E3240"/>
</svg>
